<mxfile host="app.diagrams.net" agent="Mozilla/5.0 (Windows NT 10.0; Win64; x64; rv:137.0) Gecko/20100101 Firefox/137.0" version="26.2.13">
  <diagram id="I37Zj0iXBR5SceuKAXtt" name="Page-1">
    <mxGraphModel dx="1705" dy="1156" grid="0" gridSize="10" guides="1" tooltips="1" connect="1" arrows="1" fold="1" page="0" pageScale="1" pageWidth="827" pageHeight="1169" math="0" shadow="0">
      <root>
        <mxCell id="0" />
        <mxCell id="1" parent="0" />
        <mxCell id="HUlR5p6xhp2IkNR2Y161-19" style="edgeStyle=orthogonalEdgeStyle;rounded=0;orthogonalLoop=1;jettySize=auto;html=1;exitX=0.5;exitY=0;exitDx=0;exitDy=0;entryX=0.5;entryY=1;entryDx=0;entryDy=0;endArrow=none;endFill=1;startFill=0;" parent="1" source="xqfFMeQF6XFmIoWLsWPs-2" target="xqfFMeQF6XFmIoWLsWPs-64" edge="1">
          <mxGeometry relative="1" as="geometry" />
        </mxCell>
        <mxCell id="HUlR5p6xhp2IkNR2Y161-21" style="edgeStyle=orthogonalEdgeStyle;rounded=0;orthogonalLoop=1;jettySize=auto;html=1;exitX=0.5;exitY=1;exitDx=0;exitDy=0;endArrow=none;startFill=0;" parent="1" source="xqfFMeQF6XFmIoWLsWPs-2" target="xqfFMeQF6XFmIoWLsWPs-21" edge="1">
          <mxGeometry relative="1" as="geometry" />
        </mxCell>
        <mxCell id="xqfFMeQF6XFmIoWLsWPs-2" value="&lt;div style=&quot;font-size: 12px;&quot; align=&quot;center&quot;&gt;&lt;font style=&quot;font-size: 12px;&quot;&gt;Торговый зал&lt;/font&gt;&lt;/div&gt;" style="rounded=0;whiteSpace=wrap;html=1;align=center;fontFamily=Times New Roman;fontSize=12;" parent="1" vertex="1">
          <mxGeometry x="-73" y="114" width="120" height="40" as="geometry" />
        </mxCell>
        <mxCell id="xqfFMeQF6XFmIoWLsWPs-10" value="Чек" style="rounded=0;whiteSpace=wrap;html=1;fontFamily=Times New Roman;fontSize=12;" parent="1" vertex="1">
          <mxGeometry x="-73" y="-175" width="120" height="40" as="geometry" />
        </mxCell>
        <mxCell id="xqfFMeQF6XFmIoWLsWPs-21" value="Передается" style="rhombus;whiteSpace=wrap;html=1;rounded=0;fontFamily=Times New Roman;fontSize=12;" parent="1" vertex="1">
          <mxGeometry x="-93" y="191" width="160" height="40" as="geometry" />
        </mxCell>
        <mxCell id="xqfFMeQF6XFmIoWLsWPs-64" value="Продаёт" style="rhombus;whiteSpace=wrap;html=1;rounded=0;fontFamily=Times New Roman;fontSize=12;" parent="1" vertex="1">
          <mxGeometry x="-93" y="35" width="160" height="40" as="geometry" />
        </mxCell>
        <mxCell id="xqfFMeQF6XFmIoWLsWPs-72" value="Поставка" style="rounded=0;whiteSpace=wrap;html=1;fontFamily=Times New Roman;fontSize=12;" parent="1" vertex="1">
          <mxGeometry x="-73" y="417" width="120" height="40" as="geometry" />
        </mxCell>
        <mxCell id="HUlR5p6xhp2IkNR2Y161-37" style="edgeStyle=orthogonalEdgeStyle;rounded=0;orthogonalLoop=1;jettySize=auto;html=1;exitX=1;exitY=0.5;exitDx=0;exitDy=0;entryX=0;entryY=0.5;entryDx=0;entryDy=0;endArrow=none;startFill=0;" parent="1" source="xqfFMeQF6XFmIoWLsWPs-78" target="xqfFMeQF6XFmIoWLsWPs-139" edge="1">
          <mxGeometry relative="1" as="geometry" />
        </mxCell>
        <mxCell id="xqfFMeQF6XFmIoWLsWPs-78" value="Предоставляется" style="rhombus;whiteSpace=wrap;html=1;rounded=0;fontFamily=Times New Roman;fontSize=12;" parent="1" vertex="1">
          <mxGeometry x="193" y="-171.5" width="160" height="40" as="geometry" />
        </mxCell>
        <mxCell id="HUlR5p6xhp2IkNR2Y161-32" style="edgeStyle=orthogonalEdgeStyle;rounded=0;orthogonalLoop=1;jettySize=auto;html=1;exitX=1;exitY=0.5;exitDx=0;exitDy=0;entryX=0;entryY=0.5;entryDx=0;entryDy=0;endArrow=none;startFill=0;" parent="1" source="xqfFMeQF6XFmIoWLsWPs-81" target="xqfFMeQF6XFmIoWLsWPs-1" edge="1">
          <mxGeometry relative="1" as="geometry" />
        </mxCell>
        <mxCell id="xqfFMeQF6XFmIoWLsWPs-81" value="Получает" style="rhombus;whiteSpace=wrap;html=1;rounded=0;fontFamily=Times New Roman;fontSize=12;" parent="1" vertex="1">
          <mxGeometry x="-93" y="-248.5" width="160" height="40" as="geometry" />
        </mxCell>
        <mxCell id="xqfFMeQF6XFmIoWLsWPs-149" style="edgeStyle=none;rounded=0;orthogonalLoop=1;jettySize=auto;html=1;exitX=0;exitY=0.5;exitDx=0;exitDy=0;entryX=1;entryY=0.5;entryDx=0;entryDy=0;fontFamily=Times New Roman;fontSize=12;endArrow=none;endFill=0;" parent="1" source="xqfFMeQF6XFmIoWLsWPs-84" target="xqfFMeQF6XFmIoWLsWPs-111" edge="1">
          <mxGeometry relative="1" as="geometry" />
        </mxCell>
        <mxCell id="xqfFMeQF6XFmIoWLsWPs-84" value="Ед.техники" style="rounded=0;whiteSpace=wrap;html=1;fontFamily=Times New Roman;fontSize=12;" parent="1" vertex="1">
          <mxGeometry x="-73" y="-29" width="120" height="40" as="geometry" />
        </mxCell>
        <mxCell id="21eiZCUbUNFnZ4OzJi_P-14" style="edgeStyle=orthogonalEdgeStyle;rounded=0;orthogonalLoop=1;jettySize=auto;html=1;exitX=0.5;exitY=0;exitDx=0;exitDy=0;entryX=0.5;entryY=1;entryDx=0;entryDy=0;endArrow=none;startFill=0;" edge="1" parent="1" source="xqfFMeQF6XFmIoWLsWPs-85" target="xqfFMeQF6XFmIoWLsWPs-10">
          <mxGeometry relative="1" as="geometry" />
        </mxCell>
        <mxCell id="xqfFMeQF6XFmIoWLsWPs-85" value="Содержит" style="rhombus;whiteSpace=wrap;html=1;rounded=0;fontFamily=Times New Roman;fontSize=12;" parent="1" vertex="1">
          <mxGeometry x="-93" y="-98" width="160" height="40" as="geometry" />
        </mxCell>
        <mxCell id="xqfFMeQF6XFmIoWLsWPs-93" value="Договор" style="rounded=0;whiteSpace=wrap;html=1;fontFamily=Times New Roman;fontSize=12;" parent="1" vertex="1">
          <mxGeometry x="462.88" y="417" width="120" height="40" as="geometry" />
        </mxCell>
        <mxCell id="HUlR5p6xhp2IkNR2Y161-29" style="edgeStyle=orthogonalEdgeStyle;rounded=0;orthogonalLoop=1;jettySize=auto;html=1;exitX=0.5;exitY=0;exitDx=0;exitDy=0;entryX=0.5;entryY=1;entryDx=0;entryDy=0;endArrow=none;startFill=0;" parent="1" source="xqfFMeQF6XFmIoWLsWPs-101" target="xqfFMeQF6XFmIoWLsWPs-7" edge="1">
          <mxGeometry relative="1" as="geometry" />
        </mxCell>
        <mxCell id="xqfFMeQF6XFmIoWLsWPs-101" value="Заключает" style="rhombus;whiteSpace=wrap;html=1;rounded=0;fontFamily=Times New Roman;fontSize=12;" parent="1" vertex="1">
          <mxGeometry x="442.88" y="294.5" width="160" height="40" as="geometry" />
        </mxCell>
        <mxCell id="HUlR5p6xhp2IkNR2Y161-27" style="edgeStyle=orthogonalEdgeStyle;rounded=0;orthogonalLoop=1;jettySize=auto;html=1;exitX=1;exitY=0.5;exitDx=0;exitDy=0;entryX=0;entryY=0.5;entryDx=0;entryDy=0;endArrow=none;startFill=0;" parent="1" source="xqfFMeQF6XFmIoWLsWPs-104" target="xqfFMeQF6XFmIoWLsWPs-93" edge="1">
          <mxGeometry relative="1" as="geometry" />
        </mxCell>
        <mxCell id="xqfFMeQF6XFmIoWLsWPs-104" value="Гарантирует" style="rhombus;whiteSpace=wrap;html=1;rounded=0;fontFamily=Times New Roman;fontSize=12;" parent="1" vertex="1">
          <mxGeometry x="168" y="417" width="160" height="40" as="geometry" />
        </mxCell>
        <mxCell id="xqfFMeQF6XFmIoWLsWPs-150" style="edgeStyle=none;rounded=0;orthogonalLoop=1;jettySize=auto;html=1;exitX=1;exitY=0.5;exitDx=0;exitDy=0;entryX=0;entryY=0.5;entryDx=0;entryDy=0;fontFamily=Times New Roman;fontSize=12;endArrow=none;endFill=0;" parent="1" target="xqfFMeQF6XFmIoWLsWPs-10" edge="1">
          <mxGeometry relative="1" as="geometry">
            <mxPoint x="-117.99999999999864" y="-155" as="sourcePoint" />
          </mxGeometry>
        </mxCell>
        <mxCell id="xqfFMeQF6XFmIoWLsWPs-110" value="Номер чека" style="ellipse;whiteSpace=wrap;html=1;fontFamily=Times New Roman;fontSize=12;fontStyle=4" parent="1" vertex="1">
          <mxGeometry x="-230" y="-178.5" width="115" height="47" as="geometry" />
        </mxCell>
        <mxCell id="xqfFMeQF6XFmIoWLsWPs-111" value="Артикул" style="ellipse;whiteSpace=wrap;html=1;fontFamily=Times New Roman;fontSize=12;fontStyle=4" parent="1" vertex="1">
          <mxGeometry x="-233" y="-32.5" width="115" height="47" as="geometry" />
        </mxCell>
        <mxCell id="xqfFMeQF6XFmIoWLsWPs-119" style="edgeStyle=none;rounded=0;orthogonalLoop=1;jettySize=auto;html=1;exitX=1;exitY=0.5;exitDx=0;exitDy=0;entryX=0;entryY=0.5;entryDx=0;entryDy=0;endArrow=none;endFill=0;fontFamily=Times New Roman;fontSize=12;" parent="1" source="xqfFMeQF6XFmIoWLsWPs-118" target="xqfFMeQF6XFmIoWLsWPs-72" edge="1">
          <mxGeometry relative="1" as="geometry" />
        </mxCell>
        <mxCell id="xqfFMeQF6XFmIoWLsWPs-118" value="Код партии" style="ellipse;whiteSpace=wrap;html=1;fontFamily=Times New Roman;fontSize=12;fontStyle=4" parent="1" vertex="1">
          <mxGeometry x="-233" y="413.5" width="115" height="47" as="geometry" />
        </mxCell>
        <mxCell id="xqfFMeQF6XFmIoWLsWPs-134" style="edgeStyle=none;rounded=0;orthogonalLoop=1;jettySize=auto;html=1;exitX=0;exitY=0.5;exitDx=0;exitDy=0;endArrow=none;endFill=0;fontFamily=Times New Roman;fontSize=12;" parent="1" source="xqfFMeQF6XFmIoWLsWPs-133" target="xqfFMeQF6XFmIoWLsWPs-93" edge="1">
          <mxGeometry relative="1" as="geometry" />
        </mxCell>
        <mxCell id="xqfFMeQF6XFmIoWLsWPs-133" value="Номер договора" style="ellipse;whiteSpace=wrap;html=1;fontFamily=Times New Roman;fontSize=12;fontStyle=4" parent="1" vertex="1">
          <mxGeometry x="610" y="413.5" width="115" height="47" as="geometry" />
        </mxCell>
        <mxCell id="xqfFMeQF6XFmIoWLsWPs-148" style="edgeStyle=none;rounded=0;orthogonalLoop=1;jettySize=auto;html=1;exitX=1;exitY=0.5;exitDx=0;exitDy=0;entryX=0;entryY=0.5;entryDx=0;entryDy=0;fontFamily=Times New Roman;fontSize=12;endArrow=none;endFill=0;" parent="1" source="xqfFMeQF6XFmIoWLsWPs-147" target="xqfFMeQF6XFmIoWLsWPs-2" edge="1">
          <mxGeometry relative="1" as="geometry" />
        </mxCell>
        <mxCell id="xqfFMeQF6XFmIoWLsWPs-147" value="Номер зала" style="ellipse;whiteSpace=wrap;html=1;fontFamily=Times New Roman;fontSize=12;fontStyle=4" parent="1" vertex="1">
          <mxGeometry x="-230" y="110.5" width="115" height="47" as="geometry" />
        </mxCell>
        <mxCell id="xqfFMeQF6XFmIoWLsWPs-138" value="ID сотрудника" style="ellipse;whiteSpace=wrap;html=1;fontFamily=Times New Roman;fontSize=12;fontStyle=4" parent="1" vertex="1">
          <mxGeometry x="294" y="180" width="115" height="47" as="geometry" />
        </mxCell>
        <mxCell id="HUlR5p6xhp2IkNR2Y161-34" style="rounded=0;orthogonalLoop=1;jettySize=auto;html=1;exitX=1;exitY=0.5;exitDx=0;exitDy=0;entryX=1;entryY=0.5;entryDx=0;entryDy=0;endArrow=none;startFill=0;" parent="1" source="xqfFMeQF6XFmIoWLsWPs-7" target="xqfFMeQF6XFmIoWLsWPs-138" edge="1">
          <mxGeometry relative="1" as="geometry" />
        </mxCell>
        <mxCell id="HUlR5p6xhp2IkNR2Y161-40" style="edgeStyle=orthogonalEdgeStyle;rounded=0;orthogonalLoop=1;jettySize=auto;html=1;exitX=1;exitY=0.5;exitDx=0;exitDy=0;entryX=0;entryY=0.5;entryDx=0;entryDy=0;endArrow=none;startFill=0;" parent="1" source="xqfFMeQF6XFmIoWLsWPs-7" target="xqfFMeQF6XFmIoWLsWPs-38" edge="1">
          <mxGeometry relative="1" as="geometry" />
        </mxCell>
        <mxCell id="xqfFMeQF6XFmIoWLsWPs-7" value="Сотрудник " style="rounded=0;whiteSpace=wrap;html=1;fontFamily=Times New Roman;fontSize=12;" parent="1" vertex="1">
          <mxGeometry x="464.755" y="183.5" width="116.24999999999999" height="40" as="geometry" />
        </mxCell>
        <mxCell id="xqfFMeQF6XFmIoWLsWPs-144" value="Номер отдела" style="ellipse;whiteSpace=wrap;html=1;fontFamily=Times New Roman;fontSize=12;fontStyle=4" parent="1" vertex="1">
          <mxGeometry x="631" y="-175" width="115" height="47" as="geometry" />
        </mxCell>
        <mxCell id="HUlR5p6xhp2IkNR2Y161-38" style="edgeStyle=orthogonalEdgeStyle;rounded=0;orthogonalLoop=1;jettySize=auto;html=1;exitX=0.5;exitY=1;exitDx=0;exitDy=0;entryX=0.5;entryY=0;entryDx=0;entryDy=0;endArrow=none;startFill=0;" parent="1" source="xqfFMeQF6XFmIoWLsWPs-139" target="xqfFMeQF6XFmIoWLsWPs-140" edge="1">
          <mxGeometry relative="1" as="geometry" />
        </mxCell>
        <mxCell id="HUlR5p6xhp2IkNR2Y161-43" style="edgeStyle=orthogonalEdgeStyle;rounded=0;orthogonalLoop=1;jettySize=auto;html=1;exitX=1;exitY=0.5;exitDx=0;exitDy=0;entryX=0;entryY=0.5;entryDx=0;entryDy=0;endArrow=none;startFill=0;" parent="1" source="xqfFMeQF6XFmIoWLsWPs-139" target="xqfFMeQF6XFmIoWLsWPs-144" edge="1">
          <mxGeometry relative="1" as="geometry" />
        </mxCell>
        <mxCell id="xqfFMeQF6XFmIoWLsWPs-139" value="Бухгалтерия" style="rounded=0;whiteSpace=wrap;html=1;fontFamily=Times New Roman;fontSize=12;" parent="1" vertex="1">
          <mxGeometry x="464.755" y="-171.5" width="116.24999999999999" height="40" as="geometry" />
        </mxCell>
        <mxCell id="xqfFMeQF6XFmIoWLsWPs-140" value="Работает" style="rhombus;whiteSpace=wrap;html=1;rounded=0;fontFamily=Times New Roman;fontSize=12;" parent="1" vertex="1">
          <mxGeometry x="450.37749999999994" y="6" width="145" height="40" as="geometry" />
        </mxCell>
        <mxCell id="HUlR5p6xhp2IkNR2Y161-8" value="Категория товара" style="rounded=0;whiteSpace=wrap;html=1;align=center;fontFamily=Times New Roman;fontSize=12;" parent="1" vertex="1">
          <mxGeometry x="-73" y="254.5" width="120" height="40" as="geometry" />
        </mxCell>
        <mxCell id="HUlR5p6xhp2IkNR2Y161-25" style="edgeStyle=orthogonalEdgeStyle;rounded=0;orthogonalLoop=1;jettySize=auto;html=1;exitX=0.5;exitY=1;exitDx=0;exitDy=0;entryX=0.5;entryY=0;entryDx=0;entryDy=0;endArrow=none;startFill=0;" parent="1" source="HUlR5p6xhp2IkNR2Y161-12" target="xqfFMeQF6XFmIoWLsWPs-72" edge="1">
          <mxGeometry relative="1" as="geometry" />
        </mxCell>
        <mxCell id="HUlR5p6xhp2IkNR2Y161-12" value="Состоит из " style="rhombus;whiteSpace=wrap;html=1;rounded=0;fontFamily=Times New Roman;fontSize=12;" parent="1" vertex="1">
          <mxGeometry x="-93" y="339" width="160" height="40" as="geometry" />
        </mxCell>
        <mxCell id="HUlR5p6xhp2IkNR2Y161-23" style="rounded=0;orthogonalLoop=1;jettySize=auto;html=1;exitX=1;exitY=0.5;exitDx=0;exitDy=0;entryX=0;entryY=0.5;entryDx=0;entryDy=0;endArrow=none;startFill=0;" parent="1" source="HUlR5p6xhp2IkNR2Y161-13" target="HUlR5p6xhp2IkNR2Y161-8" edge="1">
          <mxGeometry relative="1" as="geometry" />
        </mxCell>
        <mxCell id="HUlR5p6xhp2IkNR2Y161-13" value="Категория товара" style="ellipse;whiteSpace=wrap;html=1;fontFamily=Times New Roman;fontSize=12;fontStyle=4" parent="1" vertex="1">
          <mxGeometry x="-230" y="251" width="115" height="47" as="geometry" />
        </mxCell>
        <mxCell id="xqfFMeQF6XFmIoWLsWPs-121" value="Код отчетности" style="ellipse;whiteSpace=wrap;html=1;fontFamily=Times New Roman;fontSize=12;fontStyle=4" parent="1" vertex="1">
          <mxGeometry x="786.4168749999999" y="110.5" width="111.40624999999999" height="47" as="geometry" />
        </mxCell>
        <mxCell id="HUlR5p6xhp2IkNR2Y161-42" style="edgeStyle=orthogonalEdgeStyle;rounded=0;orthogonalLoop=1;jettySize=auto;html=1;exitX=0.5;exitY=0;exitDx=0;exitDy=0;entryX=0.5;entryY=1;entryDx=0;entryDy=0;endArrow=none;startFill=0;" parent="1" source="xqfFMeQF6XFmIoWLsWPs-37" target="xqfFMeQF6XFmIoWLsWPs-121" edge="1">
          <mxGeometry relative="1" as="geometry" />
        </mxCell>
        <mxCell id="xqfFMeQF6XFmIoWLsWPs-37" value="Отчетность" style="rounded=0;whiteSpace=wrap;html=1;fontFamily=Times New Roman;fontSize=12;" parent="1" vertex="1">
          <mxGeometry x="786.415" y="183.5" width="116.24999999999999" height="40" as="geometry" />
        </mxCell>
        <mxCell id="xqfFMeQF6XFmIoWLsWPs-38" value="Составляет" style="rhombus;whiteSpace=wrap;html=1;rounded=0;fontFamily=Times New Roman;fontSize=12;" parent="1" vertex="1">
          <mxGeometry x="601" y="183.5" width="155" height="40" as="geometry" />
        </mxCell>
        <mxCell id="xqfFMeQF6XFmIoWLsWPs-151" style="edgeStyle=none;rounded=0;orthogonalLoop=1;jettySize=auto;html=1;exitX=0.5;exitY=0;exitDx=0;exitDy=0;entryX=0.5;entryY=1;entryDx=0;entryDy=0;fontFamily=Times New Roman;fontSize=12;endArrow=none;endFill=0;" parent="1" source="xqfFMeQF6XFmIoWLsWPs-1" target="xqfFMeQF6XFmIoWLsWPs-114" edge="1">
          <mxGeometry relative="1" as="geometry" />
        </mxCell>
        <mxCell id="21eiZCUbUNFnZ4OzJi_P-2" style="edgeStyle=orthogonalEdgeStyle;rounded=0;orthogonalLoop=1;jettySize=auto;html=1;exitX=1;exitY=0.5;exitDx=0;exitDy=0;entryX=0;entryY=0.5;entryDx=0;entryDy=0;endArrow=none;startFill=0;" edge="1" parent="1" source="xqfFMeQF6XFmIoWLsWPs-1" target="21eiZCUbUNFnZ4OzJi_P-1">
          <mxGeometry relative="1" as="geometry" />
        </mxCell>
        <mxCell id="xqfFMeQF6XFmIoWLsWPs-1" value="&lt;font style=&quot;font-size: 12px;&quot;&gt;Клиент&lt;/font&gt;" style="rounded=0;whiteSpace=wrap;html=1;fontFamily=Times New Roman;fontSize=12;" parent="1" vertex="1">
          <mxGeometry x="119.5" y="-248.5" width="120" height="40" as="geometry" />
        </mxCell>
        <mxCell id="xqfFMeQF6XFmIoWLsWPs-114" value="ID клиента" style="ellipse;whiteSpace=wrap;html=1;fontFamily=Times New Roman;fontSize=12;fontStyle=4" parent="1" vertex="1">
          <mxGeometry x="122" y="-318" width="115" height="47" as="geometry" />
        </mxCell>
        <mxCell id="HUlR5p6xhp2IkNR2Y161-17" value="" style="fontSize=12;html=1;endArrow=ERmany;rounded=0;exitX=0.5;exitY=1;exitDx=0;exitDy=0;entryX=0.5;entryY=0;entryDx=0;entryDy=0;" parent="1" source="xqfFMeQF6XFmIoWLsWPs-85" target="xqfFMeQF6XFmIoWLsWPs-84" edge="1">
          <mxGeometry width="100" height="100" relative="1" as="geometry">
            <mxPoint x="75" y="15" as="sourcePoint" />
            <mxPoint x="79" y="-45" as="targetPoint" />
          </mxGeometry>
        </mxCell>
        <mxCell id="HUlR5p6xhp2IkNR2Y161-20" value="" style="fontSize=12;html=1;endArrow=ERmany;rounded=0;exitX=0.5;exitY=0;exitDx=0;exitDy=0;entryX=0.5;entryY=1;entryDx=0;entryDy=0;" parent="1" source="xqfFMeQF6XFmIoWLsWPs-64" target="xqfFMeQF6XFmIoWLsWPs-84" edge="1">
          <mxGeometry width="100" height="100" relative="1" as="geometry">
            <mxPoint x="-3" y="44.5" as="sourcePoint" />
            <mxPoint x="-3" y="74.5" as="targetPoint" />
          </mxGeometry>
        </mxCell>
        <mxCell id="HUlR5p6xhp2IkNR2Y161-22" value="" style="fontSize=12;html=1;endArrow=ERmany;rounded=0;entryX=0.5;entryY=0;entryDx=0;entryDy=0;exitX=0.5;exitY=1;exitDx=0;exitDy=0;" parent="1" source="xqfFMeQF6XFmIoWLsWPs-21" target="HUlR5p6xhp2IkNR2Y161-8" edge="1">
          <mxGeometry width="100" height="100" relative="1" as="geometry">
            <mxPoint x="-15" y="293.5" as="sourcePoint" />
            <mxPoint x="-3" y="114.5" as="targetPoint" />
          </mxGeometry>
        </mxCell>
        <mxCell id="HUlR5p6xhp2IkNR2Y161-24" value="" style="fontSize=12;html=1;endArrow=ERmany;rounded=0;entryX=0.5;entryY=1;entryDx=0;entryDy=0;exitX=0.5;exitY=0;exitDx=0;exitDy=0;" parent="1" source="HUlR5p6xhp2IkNR2Y161-12" target="HUlR5p6xhp2IkNR2Y161-8" edge="1">
          <mxGeometry width="100" height="100" relative="1" as="geometry">
            <mxPoint x="-3" y="301.5" as="sourcePoint" />
            <mxPoint x="-3" y="314.5" as="targetPoint" />
          </mxGeometry>
        </mxCell>
        <mxCell id="HUlR5p6xhp2IkNR2Y161-26" value="" style="fontSize=12;html=1;endArrow=ERmany;rounded=0;entryX=1;entryY=0.5;entryDx=0;entryDy=0;exitX=0;exitY=0.5;exitDx=0;exitDy=0;" parent="1" source="xqfFMeQF6XFmIoWLsWPs-104" target="xqfFMeQF6XFmIoWLsWPs-72" edge="1">
          <mxGeometry width="100" height="100" relative="1" as="geometry">
            <mxPoint x="-3" y="370.5" as="sourcePoint" />
            <mxPoint x="-3" y="354.5" as="targetPoint" />
          </mxGeometry>
        </mxCell>
        <mxCell id="HUlR5p6xhp2IkNR2Y161-30" value="" style="fontSize=12;html=1;endArrow=ERmany;rounded=0;entryX=0.5;entryY=0;entryDx=0;entryDy=0;exitX=0.5;exitY=1;exitDx=0;exitDy=0;" parent="1" source="xqfFMeQF6XFmIoWLsWPs-101" target="xqfFMeQF6XFmIoWLsWPs-93" edge="1">
          <mxGeometry width="100" height="100" relative="1" as="geometry">
            <mxPoint x="169" y="494.5" as="sourcePoint" />
            <mxPoint x="169" y="467.5" as="targetPoint" />
          </mxGeometry>
        </mxCell>
        <mxCell id="HUlR5p6xhp2IkNR2Y161-31" value="" style="fontSize=12;html=1;endArrow=ERmany;rounded=0;exitX=0.5;exitY=1;exitDx=0;exitDy=0;entryX=0.5;entryY=0;entryDx=0;entryDy=0;" parent="1" source="xqfFMeQF6XFmIoWLsWPs-81" target="xqfFMeQF6XFmIoWLsWPs-10" edge="1">
          <mxGeometry width="100" height="100" relative="1" as="geometry">
            <mxPoint x="-3" y="-55" as="sourcePoint" />
            <mxPoint x="-3" y="-25" as="targetPoint" />
          </mxGeometry>
        </mxCell>
        <mxCell id="HUlR5p6xhp2IkNR2Y161-36" value="" style="fontSize=12;html=1;endArrow=ERmany;rounded=0;exitX=0;exitY=0.5;exitDx=0;exitDy=0;entryX=1;entryY=0.5;entryDx=0;entryDy=0;" parent="1" source="xqfFMeQF6XFmIoWLsWPs-78" target="xqfFMeQF6XFmIoWLsWPs-10" edge="1">
          <mxGeometry width="100" height="100" relative="1" as="geometry">
            <mxPoint x="-3" y="-198" as="sourcePoint" />
            <mxPoint x="-3" y="-165" as="targetPoint" />
            <Array as="points" />
          </mxGeometry>
        </mxCell>
        <mxCell id="HUlR5p6xhp2IkNR2Y161-39" value="" style="fontSize=12;html=1;endArrow=ERmany;rounded=0;exitX=0.5;exitY=1;exitDx=0;exitDy=0;entryX=0.5;entryY=0;entryDx=0;entryDy=0;" parent="1" source="xqfFMeQF6XFmIoWLsWPs-140" target="xqfFMeQF6XFmIoWLsWPs-7" edge="1">
          <mxGeometry width="100" height="100" relative="1" as="geometry">
            <mxPoint x="669" y="205.5" as="sourcePoint" />
            <mxPoint x="527" y="155.5" as="targetPoint" />
            <Array as="points" />
          </mxGeometry>
        </mxCell>
        <mxCell id="HUlR5p6xhp2IkNR2Y161-41" value="" style="fontSize=12;html=1;endArrow=ERmany;rounded=0;exitX=1;exitY=0.5;exitDx=0;exitDy=0;entryX=0;entryY=0.5;entryDx=0;entryDy=0;" parent="1" source="xqfFMeQF6XFmIoWLsWPs-38" target="xqfFMeQF6XFmIoWLsWPs-37" edge="1">
          <mxGeometry width="100" height="100" relative="1" as="geometry">
            <mxPoint x="530" y="139.5" as="sourcePoint" />
            <mxPoint x="530" y="193.5" as="targetPoint" />
            <Array as="points" />
          </mxGeometry>
        </mxCell>
        <mxCell id="21eiZCUbUNFnZ4OzJi_P-1" value="Имеет" style="rhombus;whiteSpace=wrap;html=1;rounded=0;fontFamily=Times New Roman;fontSize=12;" vertex="1" parent="1">
          <mxGeometry x="269" y="-248.5" width="160" height="40" as="geometry" />
        </mxCell>
        <mxCell id="21eiZCUbUNFnZ4OzJi_P-3" value="Контакты" style="rounded=0;whiteSpace=wrap;html=1;fontFamily=Times New Roman;fontSize=12;" vertex="1" parent="1">
          <mxGeometry x="455.995" y="-248.5" width="116.24999999999999" height="40" as="geometry" />
        </mxCell>
        <mxCell id="21eiZCUbUNFnZ4OzJi_P-7" style="edgeStyle=orthogonalEdgeStyle;rounded=0;orthogonalLoop=1;jettySize=auto;html=1;exitX=0.5;exitY=1;exitDx=0;exitDy=0;entryX=0.5;entryY=0;entryDx=0;entryDy=0;endArrow=none;startFill=0;" edge="1" parent="1" source="21eiZCUbUNFnZ4OzJi_P-6" target="21eiZCUbUNFnZ4OzJi_P-3">
          <mxGeometry relative="1" as="geometry" />
        </mxCell>
        <mxCell id="21eiZCUbUNFnZ4OzJi_P-6" value="ID контакта" style="ellipse;whiteSpace=wrap;html=1;fontFamily=Times New Roman;fontSize=12;fontStyle=4" vertex="1" parent="1">
          <mxGeometry x="459" y="-318" width="115" height="47" as="geometry" />
        </mxCell>
        <mxCell id="21eiZCUbUNFnZ4OzJi_P-8" value="" style="fontSize=12;html=1;endArrow=ERmany;rounded=0;exitX=1;exitY=0.5;exitDx=0;exitDy=0;entryX=0;entryY=0.5;entryDx=0;entryDy=0;" edge="1" parent="1" source="21eiZCUbUNFnZ4OzJi_P-1" target="21eiZCUbUNFnZ4OzJi_P-3">
          <mxGeometry width="100" height="100" relative="1" as="geometry">
            <mxPoint x="112" y="-145" as="sourcePoint" />
            <mxPoint x="57" y="-145" as="targetPoint" />
            <Array as="points" />
          </mxGeometry>
        </mxCell>
        <mxCell id="21eiZCUbUNFnZ4OzJi_P-11" style="edgeStyle=orthogonalEdgeStyle;rounded=0;orthogonalLoop=1;jettySize=auto;html=1;exitX=1;exitY=0.5;exitDx=0;exitDy=0;entryX=0.5;entryY=1;entryDx=0;entryDy=0;endArrow=none;startFill=0;" edge="1" parent="1" source="HUlR5p6xhp2IkNR2Y161-8" target="21eiZCUbUNFnZ4OzJi_P-13">
          <mxGeometry relative="1" as="geometry">
            <mxPoint x="47" y="328" as="sourcePoint" />
            <mxPoint x="189" y="230" as="targetPoint" />
            <Array as="points">
              <mxPoint x="47" y="276" />
              <mxPoint x="189" y="276" />
              <mxPoint x="189" y="218" />
            </Array>
          </mxGeometry>
        </mxCell>
        <mxCell id="21eiZCUbUNFnZ4OzJi_P-12" value="" style="fontSize=12;html=1;endArrow=ERmany;rounded=0;exitX=0.5;exitY=0;exitDx=0;exitDy=0;entryX=1;entryY=0.5;entryDx=0;entryDy=0;" edge="1" parent="1" source="21eiZCUbUNFnZ4OzJi_P-13" target="xqfFMeQF6XFmIoWLsWPs-84">
          <mxGeometry width="100" height="100" relative="1" as="geometry">
            <mxPoint x="189" y="191" as="sourcePoint" />
            <mxPoint x="47" y="88" as="targetPoint" />
            <Array as="points">
              <mxPoint x="189" y="-11" />
            </Array>
          </mxGeometry>
        </mxCell>
        <mxCell id="21eiZCUbUNFnZ4OzJi_P-13" value="Принадлежит " style="rhombus;whiteSpace=wrap;html=1;rounded=0;fontFamily=Times New Roman;fontSize=12;" vertex="1" parent="1">
          <mxGeometry x="109" y="114" width="160" height="40" as="geometry" />
        </mxCell>
      </root>
    </mxGraphModel>
  </diagram>
</mxfile>
